<mxfile host="app.diagrams.net" modified="2023-11-24T13:46:13.596Z" agent="Mozilla/5.0 (Windows NT 10.0; Win64; x64) AppleWebKit/537.36 (KHTML, like Gecko) Chrome/119.0.0.0 Safari/537.36" etag="2983wSJql7Tsv3CaiQTV" version="22.1.3" type="github">
  <diagram name="第 1 页" id="EoUbFpsbxMMct5T81e78">
    <mxGraphModel dx="1221" dy="630" grid="1" gridSize="10" guides="1" tooltips="1" connect="1" arrows="1" fold="1" page="1" pageScale="1" pageWidth="827" pageHeight="1169" math="0" shadow="0">
      <root>
        <mxCell id="0" />
        <mxCell id="1" parent="0" />
        <mxCell id="n-zDzCpe2ALMnKlHU4Qt-1" value="用户" style="ellipse;whiteSpace=wrap;html=1;" vertex="1" parent="1">
          <mxGeometry x="250" y="160" width="60" height="60" as="geometry" />
        </mxCell>
        <mxCell id="n-zDzCpe2ALMnKlHU4Qt-3" value="" style="endArrow=classic;html=1;rounded=0;exitX=0.5;exitY=1;exitDx=0;exitDy=0;entryX=0.5;entryY=0;entryDx=0;entryDy=0;" edge="1" parent="1" source="n-zDzCpe2ALMnKlHU4Qt-1" target="n-zDzCpe2ALMnKlHU4Qt-4">
          <mxGeometry width="50" height="50" relative="1" as="geometry">
            <mxPoint x="390" y="320" as="sourcePoint" />
            <mxPoint x="280" y="260" as="targetPoint" />
          </mxGeometry>
        </mxCell>
        <mxCell id="n-zDzCpe2ALMnKlHU4Qt-4" value="进入加载界面" style="rounded=0;whiteSpace=wrap;html=1;" vertex="1" parent="1">
          <mxGeometry x="220" y="280" width="120" height="40" as="geometry" />
        </mxCell>
      </root>
    </mxGraphModel>
  </diagram>
</mxfile>
